<svg xmlns="http://www.w3.org/2000/svg" viewBox="0 0 64 64" role="img" aria-label="EnergIA">
  <defs>
    <linearGradient id="energy-sky" x1="10" y1="8" x2="54" y2="58" gradientUnits="userSpaceOnUse">
      <stop offset="0" stop-color="#38bdf8"/>
      <stop offset=".55" stop-color="#14b8a6"/>
      <stop offset="1" stop-color="#22c55e"/>
    </linearGradient>
    <linearGradient id="bolt" x1="20" y1="4" x2="42" y2="58" gradientUnits="userSpaceOnUse">
      <stop offset="0" stop-color="#fde047"/>
      <stop offset="1" stop-color="#f59e0b"/>
    </linearGradient>
  </defs>
  <circle cx="32" cy="32" r="30" fill="url(#energy-sky)"/>
  <path d="M45 11a21 21 0 0 0-27 35c2.6-8.5 10.6-14.8 27-35Z" fill="#ecfeff" opacity=".28"/>
  <path d="M36 4 15 36h15l-3 24 22-34H34l2-22Z" fill="url(#bolt)"/>
  <path d="M42 42c7-1 11-5 13-12-8 0-15 4-16 12 3-1 7-3 10-6-2 4-5 7-9 9 1 1 2 2 3 3Z" fill="#dcfce7"/>
  <path d="M13 49c6-11 16-18 31-23" fill="none" stroke="#064e3b" stroke-linecap="round" stroke-width="3" opacity=".38"/>
</svg>
